Comme-Bold.ufo
<glyph name="quotesingle" format="1">
  <advance width="568"/>
  <unicode hex="0027"/>
  <outline>
    <contour>
      <point x="211" y="921" type="line"/>
      <point x="353" y="921" type="line"/>
      <point x="395" y="1539" type="line"/>
      <point x="130" y="1539" type="line"/>
    </contour>
  </outline>
</glyph>
<glyph name="plus" format="1">
  <advance width="1175"/>
  <unicode hex="002B"/>
  <outline>
    <contour>
      <point x="472" y="1211" type="line"/>
      <point x="472" y="838" type="line"/>
      <point x="107" y="838" type="line"/>
      <point x="107" y="615" type="line"/>
      <point x="471" y="615" type="line"/>
      <point x="471" y="234" type="line"/>
      <point x="699" y="234" type="line"/>
      <point x="699" y="615" type="line"/>
      <point x="1062" y="615" type="line"/>
      <point x="1062" y="838" type="line"/>
      <point x="699" y="838" type="line"/>
      <point x="699" y="1211" type="line"/>
    </contour>
  </outline>
</glyph>
<glyph name="zero" format="1">
  <advance width="1343"/>
  <unicode hex="0030"/>
  <outline>
    <contour>
      <point x="673" y="-20" type="curve" smooth="yes"/>
      <point x="1041" y="-20"/>
      <point x="1247" y="266"/>
      <point x="1247" y="722" type="curve" smooth="yes"/>
      <point x="1247" y="1183"/>
      <point x="1035" y="1476"/>
      <point x="673" y="1476" type="curve" smooth="yes"/>
      <point x="311" y="1476"/>
      <point x="96" y="1182"/>
      <point x="96" y="722" type="curve" smooth="yes"/>
      <point x="96" y="266"/>
      <point x="305" y="-20"/>
    </contour>
    <contour>
      <point x="673" y="216" type="curve" smooth="yes"/>
      <point x="524" y="216"/>
      <point x="430" y="390"/>
      <point x="430" y="723" type="curve" smooth="yes"/>
      <point x="433" y="1047"/>
      <point x="526" y="1239"/>
      <point x="673" y="1239" type="curve" smooth="yes"/>
      <point x="822" y="1239"/>
      <point x="912" y="1057"/>
      <point x="912" y="724" type="curve" smooth="yes"/>
      <point x="912" y="390"/>
      <point x="822" y="216"/>
    </contour>
  </outline>
</glyph>
<glyph name="eight" format="1">
  <advance width="1343"/>
  <unicode hex="0038"/>
  <outline>
    <contour>
      <point x="675" y="832" type="curve"/>
      <point x="546" y="877"/>
      <point x="472" y="974"/>
      <point x="472" y="1099" type="curve" smooth="yes"/>
      <point x="472" y="1212"/>
      <point x="553" y="1281"/>
      <point x="675" y="1281" type="curve" smooth="yes"/>
      <point x="796" y="1281"/>
      <point x="872" y="1213"/>
      <point x="872" y="1099" type="curve" smooth="yes"/>
      <point x="872" y="975"/>
      <point x="803" y="877"/>
    </contour>
    <contour>
      <point x="675" y="180" type="curve" smooth="yes"/>
      <point x="532" y="180"/>
      <point x="462" y="252"/>
      <point x="462" y="397" type="curve" smooth="yes"/>
      <point x="462" y="548"/>
      <point x="551" y="653"/>
      <point x="675" y="689" type="curve"/>
      <point x="798" y="653"/>
      <point x="883" y="546"/>
      <point x="883" y="398" type="curve" smooth="yes"/>
      <point x="883" y="250"/>
      <point x="820" y="180"/>
    </contour>
    <contour>
      <point x="675" y="-20" type="curve" smooth="yes"/>
      <point x="997" y="-20"/>
      <point x="1201" y="123"/>
      <point x="1201" y="383" type="curve" smooth="yes"/>
      <point x="1201" y="577"/>
      <point x="1106" y="718"/>
      <point x="950" y="775" type="curve"/>
      <point x="1088" y="829"/>
      <point x="1174" y="936"/>
      <point x="1174" y="1112" type="curve" smooth="yes"/>
      <point x="1174" y="1349"/>
      <point x="962" y="1476"/>
      <point x="673" y="1476" type="curve" smooth="yes"/>
      <point x="385" y="1476"/>
      <point x="169" y="1349"/>
      <point x="169" y="1112" type="curve" smooth="yes"/>
      <point x="169" y="932"/>
      <point x="264" y="822"/>
      <point x="404" y="774" type="curve"/>
      <point x="241" y="716"/>
      <point x="141" y="579"/>
      <point x="141" y="383" type="curve" smooth="yes"/>
      <point x="141" y="123"/>
      <point x="351" y="-20"/>
    </contour>
  </outline>
</glyph>
<glyph name="L" format="1">
  <advance width="1174"/>
  <unicode hex="004C"/>
  <outline>
    <contour>
      <point x="579" y="0" type="move" name="bot"/>
    </contour>
    <contour>
      <point x="394" y="1456" type="move" name="top"/>
    </contour>
    <contour>
      <point x="181" y="1456" type="line"/>
      <point x="181" y="0" type="line"/>
      <point x="1145" y="0" type="line"/>
      <point x="1161" y="211" type="line"/>
      <point x="505" y="211" type="line"/>
      <point x="505" y="1456" type="line"/>
    </contour>
  </outline>
</glyph>
<glyph name="M" format="1">
  <advance width="1878"/>
  <unicode hex="004D"/>
  <outline>
    <contour>
      <point x="944" y="1456" type="move" name="top"/>
    </contour>
    <contour>
      <point x="162" y="-4" type="line"/>
      <point x="465" y="-4" type="line"/>
      <point x="465" y="532" type="line"/>
      <point x="474" y="987" type="line"/>
      <point x="832" y="218" type="line"/>
      <point x="1039" y="218" type="line"/>
      <point x="1403" y="983" type="line"/>
      <point x="1411" y="535" type="line"/>
      <point x="1411" y="-4" type="line"/>
      <point x="1716" y="-4" type="line"/>
      <point x="1716" y="580" type="line"/>
      <point x="1693" y="1456" type="line"/>
      <point x="1361" y="1456" type="line"/>
      <point x="943" y="584" type="line"/>
      <point x="524" y="1456" type="line"/>
      <point x="185" y="1456" type="line"/>
      <point x="162" y="574" type="line"/>
    </contour>
  </outline>
</glyph>
<glyph name="O" format="1">
  <advance width="1649"/>
  <unicode hex="004F"/>
  <outline>
    <contour>
      <point x="819" y="1456" type="move" name="top"/>
    </contour>
    <contour>
      <point x="1177" y="721" type="curve" smooth="yes"/>
      <point x="1177" y="405"/>
      <point x="1068" y="215"/>
      <point x="826" y="215" type="curve" smooth="yes"/>
      <point x="584" y="215"/>
      <point x="472" y="404"/>
      <point x="472" y="721" type="curve" smooth="yes"/>
      <point x="472" y="1042"/>
      <point x="588" y="1239"/>
      <point x="826" y="1239" type="curve" smooth="yes"/>
      <point x="1067" y="1239"/>
      <point x="1177" y="1041"/>
    </contour>
    <contour>
      <point x="128" y="722" type="curve" smooth="yes"/>
      <point x="128" y="253"/>
      <point x="373" y="-21"/>
      <point x="826" y="-21" type="curve" smooth="yes"/>
      <point x="1280" y="-21"/>
      <point x="1521" y="254"/>
      <point x="1521" y="723" type="curve" smooth="yes"/>
      <point x="1521" y="1194"/>
      <point x="1275" y="1476"/>
      <point x="826" y="1476" type="curve" smooth="yes"/>
      <point x="375" y="1476"/>
      <point x="128" y="1195"/>
    </contour>
  </outline>
</glyph>
<glyph name="V" format="1">
  <advance width="1398"/>
  <unicode hex="0056"/>
  <outline>
    <contour>
      <point x="507" y="-4" type="line"/>
      <point x="861" y="-4" type="line"/>
      <point x="1370" y="1456" type="line"/>
      <point x="1052" y="1456" type="line"/>
      <point x="760" y="525" type="line"/>
      <point x="692" y="283" type="line"/>
      <point x="582" y="680"/>
      <point x="461" y="1065"/>
      <point x="345" y="1456" type="curve"/>
      <point x="28" y="1456" type="line"/>
    </contour>
  </outline>
</glyph>
<glyph name="W" format="1">
  <advance width="2027"/>
  <unicode hex="0057"/>
  <outline>
    <contour>
      <point x="1002" y="0" type="move" name="bot"/>
    </contour>
    <contour>
      <point x="1020" y="1456" type="move" name="top"/>
    </contour>
    <contour>
      <point x="1012" y="1040" type="line"/>
      <point x="1294" y="0" type="line"/>
      <point x="1591" y="0" type="line"/>
      <point x="1969" y="1456" type="line"/>
      <point x="1656" y="1456" type="line"/>
      <point x="1431" y="417" type="line"/>
      <point x="1144" y="1443" type="line"/>
      <point x="878" y="1443" type="line"/>
      <point x="592" y="423" type="line"/>
      <point x="366" y="1456" type="line"/>
      <point x="57" y="1456" type="line"/>
      <point x="418" y="0" type="line"/>
      <point x="715" y="0" type="line"/>
    </contour>
  </outline>
</glyph>
<glyph name="X" format="1">
  <advance width="1382"/>
  <unicode hex="0058"/>
  <outline>
    <contour>
      <point x="880" y="736" type="line"/>
      <point x="1353" y="1456" type="line"/>
      <point x="1005" y="1456" type="line"/>
      <point x="711" y="990" type="line"/>
      <point x="401" y="1456" type="line"/>
      <point x="46" y="1456" type="line"/>
      <point x="510" y="759" type="line"/>
      <point x="7" y="-4" type="line"/>
      <point x="342" y="-4" type="line"/>
      <point x="679" y="504" type="line"/>
      <point x="1017" y="-4" type="line"/>
      <point x="1372" y="-4" type="line"/>
    </contour>
  </outline>
</glyph>
<glyph name="a" format="1">
  <advance width="1149"/>
  <unicode hex="0061"/>
  <outline>
    <contour>
      <point x="592" y="0" type="move" name="bot"/>
    </contour>
    <contour>
      <point x="561" y="1082" type="move" name="top"/>
    </contour>
    <contour>
      <point x="729" y="252" type="line"/>
      <point x="687" y="206"/>
      <point x="621" y="157"/>
      <point x="510" y="157" type="curve" smooth="yes"/>
      <point x="437" y="157"/>
      <point x="367" y="201"/>
      <point x="367" y="305" type="curve" smooth="yes"/>
      <point x="367" y="428"/>
      <point x="466" y="470"/>
      <point x="620" y="470" type="curve" smooth="yes"/>
      <point x="729" y="470" type="line"/>
    </contour>
    <contour>
      <point x="428" y="-17" type="curve" smooth="yes"/>
      <point x="591" y="-17"/>
      <point x="691" y="40"/>
      <point x="769" y="122" type="curve"/>
      <point x="799" y="0" type="line"/>
      <point x="1029" y="0" type="line"/>
      <point x="1029" y="655" type="line" smooth="yes"/>
      <point x="1029" y="976"/>
      <point x="837" y="1102"/>
      <point x="583" y="1102" type="curve" smooth="yes"/>
      <point x="435" y="1102"/>
      <point x="273" y="1062"/>
      <point x="132" y="988" type="curve"/>
      <point x="194" y="798" type="line"/>
      <point x="310" y="853"/>
      <point x="440" y="887"/>
      <point x="538" y="887" type="curve" smooth="yes"/>
      <point x="659" y="887"/>
      <point x="730" y="835"/>
      <point x="730" y="705" type="curve" smooth="yes"/>
      <point x="730" y="617" type="line"/>
      <point x="560" y="618" type="line"/>
      <point x="551" y="618" type="line" smooth="yes"/>
      <point x="310" y="618"/>
      <point x="93" y="536"/>
      <point x="93" y="302" type="curve" smooth="yes"/>
      <point x="93" y="90"/>
      <point x="231" y="-17"/>
    </contour>
  </outline>
</glyph>
<glyph name="b" format="1">
  <advance width="1251"/>
  <unicode hex="0062"/>
  <outline>
    <contour>
      <point x="740" y="1082" type="move" name="top"/>
    </contour>
    <contour>
      <point x="651" y="180" type="curve" smooth="yes"/>
      <point x="543" y="180"/>
      <point x="483" y="220"/>
      <point x="440" y="278" type="curve"/>
      <point x="440" y="563" type="line" smooth="yes"/>
      <point x="440" y="811"/>
      <point x="534" y="902"/>
      <point x="667" y="902" type="curve" smooth="yes"/>
      <point x="789" y="902"/>
      <point x="852" y="802"/>
      <point x="852" y="547" type="curve" smooth="yes"/>
      <point x="852" y="293"/>
      <point x="772" y="180"/>
    </contour>
    <contour>
      <point x="733" y="1103" type="curve" smooth="yes"/>
      <point x="586" y="1103"/>
      <point x="488" y="1032"/>
      <point x="432" y="918" type="curve"/>
      <point x="442" y="1137" type="line"/>
      <point x="442" y="1560" type="line"/>
      <point x="139" y="1540" type="line"/>
      <point x="139" y="0" type="line"/>
      <point x="406" y="0" type="line"/>
      <point x="416" y="130" type="line"/>
      <point x="467" y="54"/>
      <point x="563" y="-20"/>
      <point x="713" y="-20" type="curve" smooth="yes"/>
      <point x="1009" y="-20"/>
      <point x="1162" y="213"/>
      <point x="1162" y="547" type="curve" smooth="yes"/>
      <point x="1162" y="864"/>
      <point x="1023" y="1103"/>
    </contour>
  </outline>
</glyph>
<glyph name="f" format="1">
  <advance width="817"/>
  <unicode hex="0066"/>
  <outline>
    <contour>
      <point x="442" y="1456" type="move" name="top"/>
    </contour>
    <contour>
      <point x="510" y="1082" type="line"/>
      <point x="510" y="1159" type="line" smooth="yes"/>
      <point x="510" y="1281"/>
      <point x="560" y="1318"/>
      <point x="675" y="1318" type="curve" smooth="yes"/>
      <point x="710" y="1318"/>
      <point x="754" y="1313"/>
      <point x="802" y="1307" type="curve"/>
      <point x="812" y="1494" type="line"/>
      <point x="790" y="1499"/>
      <point x="708" y="1520"/>
      <point x="571" y="1520" type="curve" smooth="yes"/>
      <point x="363" y="1519"/>
      <point x="203" y="1449"/>
      <point x="203" y="1159" type="curve" smooth="yes"/>
      <point x="203" y="1077" type="line"/>
      <point x="50" y="1058" type="line"/>
      <point x="45" y="906" type="line"/>
      <point x="203" y="906" type="line"/>
      <point x="203" y="0" type="line"/>
      <point x="510" y="0" type="line"/>
      <point x="510" y="906" type="line"/>
      <point x="777" y="906" type="line"/>
      <point x="777" y="1082" type="line"/>
    </contour>
  </outline>
</glyph>
<glyph name="g" format="1">
  <advance width="1242"/>
  <unicode hex="0067"/>
  <outline>
    <contour>
      <point x="587" y="1082" type="move" name="top"/>
    </contour>
    <contour>
      <point x="610" y="180" type="curve" smooth="yes"/>
      <point x="475" y="180"/>
      <point x="397" y="300"/>
      <point x="397" y="558" type="curve" smooth="yes"/>
      <point x="397" y="826"/>
      <point x="501" y="902"/>
      <point x="613" y="902" type="curve" smooth="yes"/>
      <point x="709" y="902"/>
      <point x="760" y="870"/>
      <point x="810" y="811" type="curve"/>
      <point x="810" y="256" type="line"/>
      <point x="766" y="209"/>
      <point x="688" y="180"/>
    </contour>
    <contour>
      <point x="576" y="-504" type="curve" smooth="yes"/>
      <point x="893" y="-504"/>
      <point x="1110" y="-348"/>
      <point x="1110" y="7" type="curve" smooth="yes"/>
      <point x="1110" y="1082" type="line"/>
      <point x="818" y="1082" type="line"/>
      <point x="815" y="985" type="line"/>
      <point x="762" y="1048"/>
      <point x="678" y="1103"/>
      <point x="549" y="1103" type="curve" smooth="yes"/>
      <point x="547" y="1103" type="line" smooth="yes"/>
      <point x="313" y="1103"/>
      <point x="89" y="933"/>
      <point x="89" y="558" type="curve" smooth="yes"/>
      <point x="89" y="125"/>
      <point x="316" y="-7"/>
      <point x="537" y="-7" type="curve" smooth="yes"/>
      <point x="678" y="-7"/>
      <point x="769" y="42"/>
      <point x="823" y="100" type="curve"/>
      <point x="829" y="19" type="line" smooth="yes"/>
      <point x="830" y="5"/>
      <point x="831" y="-10"/>
      <point x="831" y="-23" type="curve" smooth="yes"/>
      <point x="831" y="-229"/>
      <point x="709" y="-301"/>
      <point x="532" y="-302" type="curve" smooth="yes"/>
      <point x="446" y="-302"/>
      <point x="345" y="-284"/>
      <point x="254" y="-253" type="curve"/>
      <point x="227" y="-253" type="line"/>
      <point x="205" y="-455" type="line"/>
      <point x="312" y="-488"/>
      <point x="440" y="-504"/>
    </contour>
  </outline>
</glyph>
<glyph name="h" format="1">
  <advance width="1254"/>
  <unicode hex="0068"/>
  <outline>
    <contour>
      <point x="574" y="1485" type="move" name="top"/>
    </contour>
    <contour>
      <point x="146" y="0" type="line"/>
      <point x="452" y="0" type="line"/>
      <point x="452" y="613" type="line" smooth="yes"/>
      <point x="452" y="795"/>
      <point x="522" y="902"/>
      <point x="661" y="902" type="curve" smooth="yes"/>
      <point x="771" y="902"/>
      <point x="820" y="834"/>
      <point x="820" y="637" type="curve" smooth="yes"/>
      <point x="820" y="0" type="line"/>
      <point x="1127" y="0" type="line"/>
      <point x="1127" y="672" type="line" smooth="yes"/>
      <point x="1127" y="941"/>
      <point x="1012" y="1103"/>
      <point x="773" y="1103" type="curve" smooth="yes"/>
      <point x="602" y="1103"/>
      <point x="503" y="1017"/>
      <point x="447" y="886" type="curve"/>
      <point x="453" y="1155" type="line"/>
      <point x="453" y="1560" type="line"/>
      <point x="146" y="1540" type="line"/>
    </contour>
  </outline>
</glyph>
<glyph name="o" format="1">
  <advance width="1239"/>
  <unicode hex="006F"/>
  <outline>
    <contour>
      <point x="621" y="1082" type="move" name="top"/>
    </contour>
    <contour>
      <point x="620" y="-21" type="curve" smooth="yes"/>
      <point x="952" y="-21"/>
      <point x="1150" y="208"/>
      <point x="1150" y="544" type="curve" smooth="yes"/>
      <point x="1150" y="877"/>
      <point x="951" y="1103"/>
      <point x="620" y="1103" type="curve" smooth="yes"/>
      <point x="288" y="1103"/>
      <point x="89" y="877"/>
      <point x="89" y="544" type="curve" smooth="yes"/>
      <point x="89" y="208"/>
      <point x="287" y="-21"/>
    </contour>
    <contour>
      <point x="620" y="180" type="curve" smooth="yes"/>
      <point x="473" y="180"/>
      <point x="397" y="303"/>
      <point x="397" y="544" type="curve" smooth="yes"/>
      <point x="397" y="783"/>
      <point x="472" y="902"/>
      <point x="620" y="902" type="curve" smooth="yes"/>
      <point x="767" y="902"/>
      <point x="843" y="783"/>
      <point x="843" y="544" type="curve" smooth="yes"/>
      <point x="843" y="304"/>
      <point x="766" y="180"/>
    </contour>
  </outline>
</glyph>
<glyph name="asciitilde" format="1">
  <advance width="1192"/>
  <unicode hex="007E"/>
  <outline>
    <contour>
      <point x="171" y="476" type="line"/>
      <point x="211" y="552"/>
      <point x="277" y="621"/>
      <point x="362" y="621" type="curve" smooth="yes"/>
      <point x="432" y="621"/>
      <point x="491" y="594"/>
      <point x="569" y="557" type="curve" smooth="yes"/>
      <point x="658" y="516"/>
      <point x="730" y="487"/>
      <point x="819" y="487" type="curve" smooth="yes"/>
      <point x="959" y="487"/>
      <point x="1073" y="579"/>
      <point x="1124" y="685" type="curve"/>
      <point x="1046" y="819" type="line"/>
      <point x="975" y="728"/>
      <point x="907" y="682"/>
      <point x="832" y="682" type="curve" smooth="yes"/>
      <point x="778" y="682"/>
      <point x="708" y="709"/>
      <point x="621" y="749" type="curve" smooth="yes"/>
      <point x="535" y="787"/>
      <point x="454" y="814"/>
      <point x="371" y="814" type="curve" smooth="yes"/>
      <point x="226" y="814"/>
      <point x="140" y="725"/>
      <point x="90" y="618" type="curve"/>
    </contour>
  </outline>
</glyph>
<glyph name="dieresis" format="1">
  <advance width="1053"/>
  <unicode hex="00A8"/>
  <outline>
    <contour>
      <point x="522" y="1082" type="move" name="_top"/>
    </contour>
    <contour>
      <point x="764" y="1243" type="curve" smooth="yes"/>
      <point x="854" y="1243"/>
      <point x="905" y="1300"/>
      <point x="905" y="1387" type="curve" smooth="yes"/>
      <point x="905" y="1474"/>
      <point x="854" y="1533"/>
      <point x="764" y="1533" type="curve" smooth="yes"/>
      <point x="672" y="1533"/>
      <point x="619" y="1474"/>
      <point x="619" y="1387" type="curve" smooth="yes"/>
      <point x="619" y="1301"/>
      <point x="672" y="1243"/>
    </contour>
    <contour>
      <point x="270" y="1243" type="curve" smooth="yes"/>
      <point x="360" y="1243"/>
      <point x="411" y="1301"/>
      <point x="411" y="1387" type="curve" smooth="yes"/>
      <point x="411" y="1474"/>
      <point x="360" y="1533"/>
      <point x="270" y="1533" type="curve" smooth="yes"/>
      <point x="179" y="1533"/>
      <point x="127" y="1474"/>
      <point x="127" y="1387" type="curve" smooth="yes"/>
      <point x="127" y="1301"/>
      <point x="179" y="1243"/>
    </contour>
  </outline>
</glyph>
<glyph name="uni00B2" format="1">
  <advance width="828"/>
  <unicode hex="00B2"/>
  <outline>
    <contour>
      <point x="155" y="610" type="line"/>
      <point x="700" y="610" type="line"/>
      <point x="716" y="753" type="line"/>
      <point x="412" y="753" type="line"/>
      <point x="536" y="866"/>
      <point x="497" y="817"/>
      <point x="592" y="911" type="curve" smooth="yes"/>
      <point x="667" y="988"/>
      <point x="717" y="1093"/>
      <point x="717" y="1205" type="curve" smooth="yes"/>
      <point x="717" y="1384"/>
      <point x="579" y="1485"/>
      <point x="442" y="1485" type="curve" smooth="yes"/>
      <point x="313" y="1485"/>
      <point x="214" y="1443"/>
      <point x="149" y="1354" type="curve"/>
      <point x="225" y="1235" type="line"/>
      <point x="270" y="1296"/>
      <point x="344" y="1330"/>
      <point x="423" y="1330" type="curve" smooth="yes"/>
      <point x="485" y="1330"/>
      <point x="545" y="1280"/>
      <point x="545" y="1201" type="curve" smooth="yes"/>
      <point x="545" y="1159"/>
      <point x="489" y="1081"/>
      <point x="458" y="1038" type="curve"/>
      <point x="278" y="838"/>
      <point x="252" y="851"/>
      <point x="155" y="752" type="curve"/>
    </contour>
  </outline>
</glyph>
<glyph name="paragraph" format="1">
  <advance width="1216"/>
  <unicode hex="00B6"/>
  <outline>
    <contour>
      <point x="683" y="1312" type="line"/>
      <point x="861" y="1312" type="line"/>
      <point x="861" y="-240" type="line"/>
      <point x="1025" y="-240" type="line"/>
      <point x="1025" y="1456" type="line"/>
      <point x="630" y="1456" type="line" smooth="yes"/>
      <point x="241" y="1456"/>
      <point x="109" y="1315"/>
      <point x="109" y="1072" type="curve" smooth="yes"/>
      <point x="109" y="881"/>
      <point x="234" y="706"/>
      <point x="519" y="706" type="curve"/>
      <point x="519" y="-240" type="line"/>
      <point x="683" y="-240" type="line"/>
    </contour>
  </outline>
</glyph>
<glyph name="ae" format="1">
  <advance width="1724"/>
  <unicode hex="00E6"/>
  <outline>
    <contour>
      <point x="1112" y="1082" type="move" name="top"/>
    </contour>
    <contour>
      <point x="985" y="613" type="curve"/>
      <point x="997" y="824"/>
      <point x="1116" y="909"/>
      <point x="1242" y="909" type="curve" smooth="yes"/>
      <point x="1392" y="909"/>
      <point x="1435" y="835"/>
      <point x="1435" y="758" type="curve" smooth="yes"/>
      <point x="1435" y="678"/>
      <point x="1398" y="611"/>
      <point x="1089" y="611" type="curve" smooth="yes"/>
      <point x="1057" y="611"/>
      <point x="1023" y="612"/>
    </contour>
    <contour>
      <point x="746" y="304" type="curve"/>
      <point x="728" y="231"/>
      <point x="639" y="156"/>
      <point x="491" y="156" type="curve" smooth="yes"/>
      <point x="419" y="156"/>
      <point x="341" y="198"/>
      <point x="341" y="305" type="curve" smooth="yes"/>
      <point x="341" y="427"/>
      <point x="431" y="480"/>
      <point x="585" y="480" type="curve" smooth="yes"/>
      <point x="600" y="480"/>
      <point x="690" y="479"/>
      <point x="718" y="475" type="curve"/>
      <point x="718" y="454"/>
      <point x="733" y="331"/>
    </contour>
    <contour>
      <point x="1646" y="735" type="curve" smooth="yes"/>
      <point x="1646" y="905"/>
      <point x="1530" y="1102"/>
      <point x="1236" y="1102" type="curve" smooth="yes"/>
      <point x="1067" y="1102"/>
      <point x="953" y="1037"/>
      <point x="881" y="923" type="curve"/>
      <point x="843" y="1040"/>
      <point x="724" y="1101"/>
      <point x="556" y="1101" type="curve" smooth="yes"/>
      <point x="399" y="1101"/>
      <point x="247" y="1056"/>
      <point x="99" y="976" type="curve"/>
      <point x="167" y="795" type="line"/>
      <point x="290" y="854"/>
      <point x="417" y="886"/>
      <point x="514" y="886" type="curve" smooth="yes"/>
      <point x="635" y="886"/>
      <point x="716" y="837"/>
      <point x="716" y="704" type="curve" smooth="yes"/>
      <point x="716" y="623" type="line"/>
      <point x="686" y="627"/>
      <point x="543" y="629"/>
      <point x="526" y="629" type="curve" smooth="yes"/>
      <point x="281" y="629"/>
      <point x="66" y="539"/>
      <point x="66" y="302" type="curve" smooth="yes"/>
      <point x="66" y="87"/>
      <point x="203" y="-14"/>
      <point x="405" y="-17" type="curve" smooth="yes"/>
      <point x="590" y="-17"/>
      <point x="747" y="38"/>
      <point x="833" y="159" type="curve"/>
      <point x="907" y="55"/>
      <point x="1015" y="-20"/>
      <point x="1230" y="-20" type="curve" smooth="yes"/>
      <point x="1404" y="-20"/>
      <point x="1557" y="32"/>
      <point x="1642" y="106" type="curve"/>
      <point x="1586" y="276" type="line"/>
      <point x="1501" y="224"/>
      <point x="1399" y="180"/>
      <point x="1265" y="180" type="curve" smooth="yes"/>
      <point x="1132" y="180"/>
      <point x="1005" y="221"/>
      <point x="983" y="442" type="curve"/>
      <point x="1014" y="441"/>
      <point x="1044" y="441"/>
      <point x="1073" y="441" type="curve" smooth="yes"/>
      <point x="1411" y="441"/>
      <point x="1646" y="494"/>
    </contour>
  </outline>
</glyph>
<glyph name="uni0259" format="1">
  <advance width="1180"/>
  <unicode hex="0259"/>
  <outline>
    <contour>
      <point x="792" y="458" type="line"/>
      <point x="780" y="268"/>
      <point x="688" y="178"/>
      <point x="557" y="178" type="curve" smooth="yes"/>
      <point x="428" y="178"/>
      <point x="365" y="267"/>
      <point x="364" y="458" type="curve"/>
    </contour>
    <contour>
      <point x="538" y="1103" type="curve" smooth="yes"/>
      <point x="365" y="1103"/>
      <point x="212" y="1051"/>
      <point x="126" y="977" type="curve"/>
      <point x="193" y="813" type="line"/>
      <point x="209" y="813" type="line"/>
      <point x="294" y="866"/>
      <point x="389" y="903"/>
      <point x="503" y="903" type="curve" smooth="yes"/>
      <point x="661" y="903"/>
      <point x="779" y="811"/>
      <point x="795" y="626" type="curve"/>
      <point x="119" y="626" type="line"/>
      <point x="119" y="626"/>
      <point x="108" y="569"/>
      <point x="108" y="499" type="curve" smooth="yes"/>
      <point x="112" y="191"/>
      <point x="249" y="-20"/>
      <point x="572" y="-20" type="curve" smooth="yes"/>
      <point x="886" y="-20"/>
      <point x="1102" y="193"/>
      <point x="1102" y="542" type="curve" smooth="yes"/>
      <point x="1102" y="888"/>
      <point x="875" y="1103"/>
    </contour>
  </outline>
</glyph>
<glyph name="hungarumlaut" format="1">
  <advance width="932"/>
  <unicode hex="02DD"/>
  <outline>
    <contour>
      <point x="386" y="1076" type="move" name="_top"/>
    </contour>
    <contour>
      <point x="480" y="1255" type="line"/>
      <point x="626" y="1255" type="line"/>
      <point x="890" y="1644" type="line"/>
      <point x="627" y="1644" type="line"/>
    </contour>
    <contour>
      <point x="132" y="1255" type="line"/>
      <point x="286" y="1255" type="line"/>
      <point x="522" y="1644" type="line"/>
      <point x="282" y="1644" type="line"/>
    </contour>
  </outline>
</glyph>
<glyph name="quoteright" format="1">
  <advance width="529"/>
  <unicode hex="2019"/>
  <outline>
    <contour>
      <point x="128" y="1029" type="line"/>
      <point x="315" y="1029" type="line"/>
      <point x="434" y="1539" type="line"/>
      <point x="167" y="1539" type="line"/>
    </contour>
  </outline>
</glyph>
<glyph name="quotedblright" format="1">
  <advance width="954"/>
  <unicode hex="201D"/>
  <outline>
    <contour>
      <point x="128" y="1029" type="line"/>
      <point x="315" y="1029" type="line"/>
      <point x="434" y="1539" type="line"/>
      <point x="167" y="1539" type="line"/>
    </contour>
    <contour>
      <point x="532" y="1029" type="line"/>
      <point x="719" y="1029" type="line"/>
      <point x="838" y="1539" type="line"/>
      <point x="571" y="1539" type="line"/>
    </contour>
  </outline>
</glyph>
<glyph name="infinity" format="1">
  <advance width="1746"/>
  <unicode hex="221E"/>
  <outline>
    <contour>
      <point x="1478" y="674" type="curve" smooth="yes"/>
      <point x="1478" y="536"/>
      <point x="1420" y="440"/>
      <point x="1294" y="440" type="curve" smooth="yes"/>
      <point x="1194" y="440"/>
      <point x="1117" y="508"/>
      <point x="1013" y="648" type="curve"/>
      <point x="1092" y="760"/>
      <point x="1183" y="851"/>
      <point x="1290" y="851" type="curve" smooth="yes"/>
      <point x="1401" y="851"/>
      <point x="1478" y="768"/>
    </contour>
    <contour>
      <point x="747" y="646" type="curve"/>
      <point x="663" y="528"/>
      <point x="566" y="440"/>
      <point x="463" y="440" type="curve" smooth="yes"/>
      <point x="344" y="440"/>
      <point x="263" y="544"/>
      <point x="263" y="646" type="curve" smooth="yes"/>
      <point x="263" y="758"/>
      <point x="337" y="851"/>
      <point x="456" y="851" type="curve" smooth="yes"/>
      <point x="570" y="851"/>
      <point x="664" y="769"/>
    </contour>
    <contour>
      <point x="878" y="756" type="curve"/>
      <point x="755" y="923"/>
      <point x="628" y="1034"/>
      <point x="457" y="1034" type="curve" smooth="yes"/>
      <point x="259" y="1034"/>
      <point x="102" y="872"/>
      <point x="102" y="669" type="curve" smooth="yes"/>
      <point x="102" y="445"/>
      <point x="234" y="254"/>
      <point x="461" y="254" type="curve" smooth="yes"/>
      <point x="628" y="254"/>
      <point x="758" y="369"/>
      <point x="878" y="531" type="curve"/>
      <point x="1015" y="345"/>
      <point x="1140" y="254"/>
      <point x="1292" y="254" type="curve" smooth="yes"/>
      <point x="1492" y="254"/>
      <point x="1648" y="417"/>
      <point x="1648" y="651" type="curve" smooth="yes"/>
      <point x="1648" y="873"/>
      <point x="1521" y="1034"/>
      <point x="1294" y="1034" type="curve" smooth="yes"/>
      <point x="1120" y="1034"/>
      <point x="993" y="918"/>
    </contour>
  </outline>
</glyph>
<glyph name="lessequal" format="1">
  <advance width="1192"/>
  <unicode hex="2264"/>
  <outline>
    <contour>
      <point x="117" y="-2" type="line"/>
      <point x="1055" y="-2" type="line"/>
      <point x="1055" y="160" type="line"/>
      <point x="117" y="159" type="line"/>
    </contour>
    <contour>
      <point x="1045" y="301" type="line"/>
      <point x="1045" y="504" type="line"/>
      <point x="385" y="797" type="line"/>
      <point x="1046" y="1103" type="line"/>
      <point x="1046" y="1304" type="line"/>
      <point x="136" y="855" type="line"/>
      <point x="136" y="736" type="line"/>
    </contour>
  </outline>
</glyph>
